<svg width="57" height="4091" viewBox="0 0 57 4091" fill="none" xmlns="http://www.w3.org/2000/svg">
<path d="M56 4481V10H2" stroke="#6AB66B" stroke-dasharray="2.2 2.2"/>
<path d="M6 237H56" stroke="#6AB66B" stroke-dasharray="2.2 2.2"/>
<path d="M6 418H56" stroke="#6AB66B" stroke-dasharray="2.2 2.2"/>
<path d="M6 583H56" stroke="#6AB66B" stroke-dasharray="2.2 2.2"/>
<path d="M6 832H56" stroke="#6AB66B" stroke-dasharray="2.2 2.2"/>
<path d="M6 984H56" stroke="#6AB66B" stroke-dasharray="2.2 2.2"/>
<path d="M6 1167H56" stroke="#6AB66B" stroke-dasharray="2.2 2.2"/>
<path d="M6 1306H56" stroke="#6AB66B" stroke-dasharray="2.2 2.2"/>
<path d="M6 1501H56" stroke="#6AB66B" stroke-dasharray="2.2 2.2"/>
<path d="M6 1709H56" stroke="#6AB66B" stroke-dasharray="2.2 2.2"/>
<path d="M6 1882H56" stroke="#6AB66B" stroke-dasharray="2.2 2.2"/>
<path d="M6 2045H56" stroke="#6AB66B" stroke-dasharray="2.2 2.2"/>
<path d="M6 2219H56" stroke="#6AB66B" stroke-dasharray="2.2 2.2"/>
<path d="M6 2407H56" stroke="#6AB66B" stroke-dasharray="2.2 2.2"/>
<path d="M6 2615H56" stroke="#6AB66B" stroke-dasharray="2.2 2.2"/>
<path d="M6 2860H56" stroke="#6AB66B" stroke-dasharray="2.2 2.2"/>
<path d="M6 3152H56" stroke="#6AB66B" stroke-dasharray="2.2 2.2"/>
<path d="M6 3309H56" stroke="#6AB66B" stroke-dasharray="2.2 2.2"/>
<circle cx="10.5" cy="237.5" r="10.5" fill="#BADEC7"/>
<circle cx="10.5" cy="417.5" r="10.5" fill="#BADEC7"/>
<circle cx="10.5" cy="582.5" r="10.5" fill="#BADEC7"/>
<circle cx="10.5" cy="832.5" r="10.5" fill="#BADEC7"/>
<circle cx="10.5" cy="983.5" r="10.5" fill="#BADEC7"/>
<circle cx="10.5" cy="1165.5" r="10.5" fill="#BADEC7"/>
<circle cx="10.5" cy="1305.5" r="10.5" fill="#BADEC7"/>
<circle cx="10.5" cy="1501.5" r="10.5" fill="#BADEC7"/>
<circle cx="10.5" cy="1708.5" r="10.5" fill="#BADEC7"/>
<circle cx="10.5" cy="1881.5" r="10.5" fill="#BADEC7"/>
<circle cx="10.5" cy="2044.5" r="10.5" fill="#BADEC7"/>
<circle cx="10.5" cy="2219.5" r="10.5" fill="#BADEC7"/>
<circle cx="10.5" cy="2406.5" r="10.5" fill="#BADEC7"/>
<circle cx="10.5" cy="2615.5" r="10.5" fill="#BADEC7"/>
<circle cx="10.5" cy="2860.5" r="10.5" fill="#BADEC7"/>
<circle cx="10.5" cy="3152.5" r="10.5" fill="#BADEC7"/>
<circle cx="10.5" cy="3308.5" r="10.5" fill="#BADEC7"/>
<path d="M6 3449H56" stroke="#6AB66B" stroke-dasharray="2.2 2.2"/>
<circle cx="10.5" cy="3448.5" r="10.5" fill="#BADEC7"/>
<path d="M6 3640H56" stroke="#6AB66B" stroke-dasharray="2.2 2.2"/>
<circle cx="10.5" cy="3639.5" r="10.5" fill="#BADEC7"/>
<circle cx="10.5" cy="10.5" r="10.5" fill="#BADEC7"/>
</svg>
