<svg width="26" height="4061" viewBox="0 0 26 4061" fill="none" xmlns="http://www.w3.org/2000/svg">
<path opacity="0.83" d="M25 4061V5H0" stroke="#6AB66B" stroke-dasharray="2.2 2.2"/>
<circle cx="5.5" cy="5.5" r="5.5" fill="#BADEC7"/>
<path d="M0 268H25" stroke="#6AB66B" stroke-dasharray="2.2 2.2"/>
<circle cx="5.5" cy="267.5" r="5.5" fill="#BADEC7"/>
<path d="M0 443H25" stroke="#6AB66B" stroke-dasharray="2.2 2.2"/>
<circle cx="5.5" cy="442.5" r="5.5" fill="#BADEC7"/>
<path d="M0 604H25" stroke="#6AB66B" stroke-dasharray="2.2 2.2"/>
<circle cx="5.5" cy="603.5" r="5.5" fill="#BADEC7"/>
<path d="M0 868H25" stroke="#6AB66B" stroke-dasharray="2.2 2.2"/>
<circle cx="5.5" cy="867.5" r="5.5" fill="#BADEC7"/>
<path d="M0 1036H25" stroke="#6AB66B" stroke-dasharray="2.2 2.2"/>
<circle cx="5.5" cy="1035.5" r="5.5" fill="#BADEC7"/>
<path d="M0 1240H25" stroke="#6AB66B" stroke-dasharray="2.2 2.2"/>
<circle cx="5.5" cy="1239.5" r="5.5" fill="#BADEC7"/>
<path d="M0 1389H25" stroke="#6AB66B" stroke-dasharray="2.2 2.2"/>
<circle cx="5.5" cy="1388.5" r="5.5" fill="#BADEC7"/>
<path d="M0 1607H25" stroke="#6AB66B" stroke-dasharray="2.2 2.2"/>
<circle cx="5.5" cy="1606.5" r="5.5" fill="#BADEC7"/>
<path d="M0 1847H25" stroke="#6AB66B" stroke-dasharray="2.2 2.2"/>
<circle cx="5.5" cy="1846.5" r="5.5" fill="#BADEC7"/>
<path d="M0 2027H25" stroke="#6AB66B" stroke-dasharray="2.2 2.2"/>
<circle cx="5.5" cy="2026.5" r="5.5" fill="#BADEC7"/>
<path d="M0 2197H25" stroke="#6AB66B" stroke-dasharray="2.2 2.2"/>
<circle cx="5.5" cy="2196.5" r="5.5" fill="#BADEC7"/>
<path d="M0 2396H25" stroke="#6AB66B" stroke-dasharray="2.2 2.2"/>
<circle cx="5.5" cy="2395.5" r="5.5" fill="#BADEC7"/>
<path d="M0 2590H25" stroke="#6AB66B" stroke-dasharray="2.2 2.2"/>
<circle cx="5.5" cy="2589.5" r="5.5" fill="#BADEC7"/>
<path d="M0 2793H25" stroke="#6AB66B" stroke-dasharray="2.2 2.2"/>
<circle cx="5.5" cy="2792.5" r="5.5" fill="#BADEC7"/>
<path d="M0 3044H25" stroke="#6AB66B" stroke-dasharray="2.2 2.2"/>
<circle cx="5.5" cy="3043.5" r="5.5" fill="#BADEC7"/>
<path d="M0 3376H25" stroke="#6AB66B" stroke-dasharray="2.2 2.2"/>
<circle cx="5.5" cy="3375.5" r="5.5" fill="#BADEC7"/>
<path d="M0 3547H25" stroke="#6AB66B" stroke-dasharray="2.2 2.2"/>
<circle cx="5.5" cy="3546.5" r="5.5" fill="#BADEC7"/>
<path d="M0 3700H25" stroke="#6AB66B" stroke-dasharray="2.2 2.2"/>
<circle cx="5.5" cy="3699.5" r="5.5" fill="#BADEC7"/>
<path d="M0 3894H25" stroke="#6AB66B" stroke-dasharray="2.2 2.2"/>
<circle cx="5.5" cy="3893.5" r="5.5" fill="#BADEC7"/>
</svg>
