<svg width="130" height="4481" viewBox="0 0 130 4481" fill="none" xmlns="http://www.w3.org/2000/svg">
<path d="M129 4481V10H5" stroke="#6AB66B" stroke-dasharray="2.2 2.2"/>
<path d="M11 234H129" stroke="#6AB66B" stroke-dasharray="2.2 2.2"/>
<path d="M11 406H129" stroke="#6AB66B" stroke-dasharray="2.2 2.2"/>
<path d="M11 604H129" stroke="#6AB66B" stroke-dasharray="2.2 2.2"/>
<path d="M11 867H129" stroke="#6AB66B" stroke-dasharray="2.2 2.2"/>
<path d="M11 1087H129" stroke="#6AB66B" stroke-dasharray="2.2 2.2"/>
<path d="M11 1333H129" stroke="#6AB66B" stroke-dasharray="2.2 2.2"/>
<path d="M11 1595H129" stroke="#6AB66B" stroke-dasharray="2.2 2.2"/>
<path d="M11 1816H129" stroke="#6AB66B" stroke-dasharray="2.2 2.2"/>
<path d="M11 2098H129" stroke="#6AB66B" stroke-dasharray="2.2 2.2"/>
<path d="M11 2329H129" stroke="#6AB66B" stroke-dasharray="2.2 2.2"/>
<path d="M11 2490H129" stroke="#6AB66B" stroke-dasharray="2.2 2.2"/>
<path d="M11 2654H129" stroke="#6AB66B" stroke-dasharray="2.2 2.2"/>
<path d="M11 2843H129" stroke="#6AB66B" stroke-dasharray="2.2 2.2"/>
<path d="M11 3050H129" stroke="#6AB66B" stroke-dasharray="2.2 2.2"/>
<path d="M11 3304H129" stroke="#6AB66B" stroke-dasharray="2.2 2.2"/>
<path d="M11 3590H129" stroke="#6AB66B" stroke-dasharray="2.2 2.2"/>
<path d="M11 3768H129" stroke="#6AB66B" stroke-dasharray="2.2 2.2"/>
<circle cx="10.5" cy="234.5" r="10.5" fill="#BADEC7"/>
<circle cx="10.5" cy="405.5" r="10.5" fill="#BADEC7"/>
<circle cx="10.5" cy="603.5" r="10.5" fill="#BADEC7"/>
<circle cx="10.5" cy="867.5" r="10.5" fill="#BADEC7"/>
<circle cx="10.5" cy="1086.5" r="10.5" fill="#BADEC7"/>
<circle cx="10.5" cy="1331.5" r="10.5" fill="#BADEC7"/>
<circle cx="10.5" cy="1594.5" r="10.5" fill="#BADEC7"/>
<circle cx="10.5" cy="1816.5" r="10.5" fill="#BADEC7"/>
<circle cx="10.5" cy="2097.5" r="10.5" fill="#BADEC7"/>
<circle cx="10.5" cy="2328.5" r="10.5" fill="#BADEC7"/>
<circle cx="10.5" cy="2489.5" r="10.5" fill="#BADEC7"/>
<circle cx="10.5" cy="2654.5" r="10.5" fill="#BADEC7"/>
<circle cx="10.5" cy="2842.5" r="10.5" fill="#BADEC7"/>
<circle cx="10.5" cy="3050.5" r="10.5" fill="#BADEC7"/>
<circle cx="10.5" cy="3304.5" r="10.5" fill="#BADEC7"/>
<circle cx="10.5" cy="3590.5" r="10.5" fill="#BADEC7"/>
<circle cx="10.5" cy="3767.5" r="10.5" fill="#BADEC7"/>
<path d="M11 3933H129" stroke="#6AB66B" stroke-dasharray="2.2 2.2"/>
<circle cx="10.5" cy="3932.5" r="10.5" fill="#BADEC7"/>
<path d="M11 4179H129" stroke="#6AB66B" stroke-dasharray="2.2 2.2"/>
<circle cx="10.5" cy="4178.5" r="10.5" fill="#BADEC7"/>
<circle cx="10.5" cy="10.5" r="10.5" fill="#BADEC7"/>
</svg>
