<svg width="28" height="45" viewBox="0 0 28 45" fill="none" xmlns="http://www.w3.org/2000/svg">
<path fill-rule="evenodd" clip-rule="evenodd" d="M2.15385 6.95567C1.75733 6.95567 1.4359 7.27711 1.4359 7.67362V42.4056C1.4359 42.8021 1.75733 43.1235 2.15385 43.1235H25.8462C26.2427 43.1235 26.5641 42.8021 26.5641 42.4056V7.67362C26.5641 7.27711 26.2427 6.95567 25.8462 6.95567H19.8648V5.51978H25.8462C27.0357 5.51978 28 6.48409 28 7.67362V42.4056C28 43.5951 27.0357 44.5594 25.8462 44.5594H2.15385C0.964311 44.5594 0 43.5951 0 42.4056V7.67362C0 6.48409 0.964309 5.51978 2.15385 5.51978H8.04895V6.95567H2.15385Z" fill="#1B9448"/>
<path fill-rule="evenodd" clip-rule="evenodd" d="M9.33329 4.30772C8.93678 4.30772 8.61534 4.62916 8.61534 5.02567V6.46157C8.61534 6.85808 8.93678 7.17952 9.33329 7.17952H18.6666C19.0631 7.17952 19.3846 6.85808 19.3846 6.46157V5.02567C19.3846 4.62916 19.0631 4.30772 18.6666 4.30772H17.1384V2.87183H18.6666C19.8562 2.87183 20.8205 3.83614 20.8205 5.02567V6.46157C20.8205 7.65111 19.8562 8.61542 18.6666 8.61542H9.33329C8.14375 8.61542 7.17944 7.65111 7.17944 6.46157V5.02567C7.17944 3.83614 8.14375 2.87183 9.33329 2.87183H11.0359V4.30772H9.33329Z" fill="#1B9448"/>
<path fill-rule="evenodd" clip-rule="evenodd" d="M8.23839 11.5883C8.54797 11.8361 8.59809 12.2879 8.35033 12.5975L6.10791 15.3995C5.97973 15.5596 5.78916 15.6573 5.58429 15.6679C5.37942 15.6784 5.17983 15.6008 5.03587 15.4547L3.65592 14.0537C3.37767 13.7712 3.38111 13.3166 3.6636 13.0384C3.94609 12.7601 4.40066 12.7636 4.6789 13.0461L5.49177 13.8713L7.22925 11.7003C7.477 11.3907 7.92881 11.3406 8.23839 11.5883Z" fill="#1B9448"/>
<path fill-rule="evenodd" clip-rule="evenodd" d="M9.66016 13.3942C9.66016 12.9977 9.98159 12.6763 10.3781 12.6763H23.3152C23.7117 12.6763 24.0331 12.9977 24.0331 13.3942C24.0331 13.7907 23.7117 14.1122 23.3152 14.1122H10.3781C9.98159 14.1122 9.66016 13.7907 9.66016 13.3942Z" fill="#1B9448"/>
<path fill-rule="evenodd" clip-rule="evenodd" d="M8.23839 17.8148C8.54797 18.0625 8.59809 18.5143 8.35033 18.8239L6.10791 21.6259C5.97973 21.7861 5.78916 21.8837 5.58429 21.8943C5.37942 21.9049 5.17983 21.8273 5.03587 21.6811L3.65592 20.2801C3.37767 19.9976 3.38111 19.5431 3.6636 19.2648C3.94609 18.9866 4.40066 18.99 4.6789 19.2725L5.49177 20.0978L7.22925 17.9267C7.477 17.6171 7.92881 17.567 8.23839 17.8148Z" fill="#1B9448"/>
<path fill-rule="evenodd" clip-rule="evenodd" d="M9.66016 19.6209C9.66016 19.2244 9.98159 18.903 10.3781 18.903H23.3152C23.7117 18.903 24.0331 19.2244 24.0331 19.6209C24.0331 20.0174 23.7117 20.3389 23.3152 20.3389H10.3781C9.98159 20.3389 9.66016 20.0174 9.66016 19.6209Z" fill="#1B9448"/>
<path fill-rule="evenodd" clip-rule="evenodd" d="M8.23839 24.0415C8.54797 24.2892 8.59809 24.741 8.35033 25.0506L6.10791 27.8526C5.97973 28.0128 5.78916 28.1104 5.58429 28.121C5.37942 28.1315 5.17983 28.0539 5.03587 27.9078L3.65592 26.5068C3.37767 26.2243 3.38111 25.7698 3.6636 25.4915C3.94609 25.2133 4.40066 25.2167 4.6789 25.4992L5.49177 26.3244L7.22925 24.1534C7.477 23.8438 7.92881 23.7937 8.23839 24.0415Z" fill="#1B9448"/>
<path fill-rule="evenodd" clip-rule="evenodd" d="M9.66016 25.8476C9.66016 25.4511 9.98159 25.1296 10.3781 25.1296H23.3152C23.7117 25.1296 24.0331 25.4511 24.0331 25.8476C24.0331 26.2441 23.7117 26.5655 23.3152 26.5655H10.3781C9.98159 26.5655 9.66016 26.2441 9.66016 25.8476Z" fill="#1B9448"/>
<path fill-rule="evenodd" clip-rule="evenodd" d="M8.23839 30.2682C8.54797 30.5159 8.59809 30.9677 8.35033 31.2773L6.10791 34.0793C5.97973 34.2394 5.78916 34.3371 5.58429 34.3477C5.37942 34.3582 5.17983 34.2806 5.03587 34.1345L3.65592 32.7335C3.37767 32.451 3.38111 31.9964 3.6636 31.7182C3.94609 31.4399 4.40066 31.4434 4.6789 31.7259L5.49177 32.5511L7.22925 30.3801C7.477 30.0705 7.92881 30.0204 8.23839 30.2682Z" fill="#1B9448"/>
<path fill-rule="evenodd" clip-rule="evenodd" d="M9.66016 32.0739C9.66016 31.6774 9.98159 31.356 10.3781 31.356H23.3152C23.7117 31.356 24.0331 31.6774 24.0331 32.0739C24.0331 32.4704 23.7117 32.7919 23.3152 32.7919H10.3781C9.98159 32.7919 9.66016 32.4704 9.66016 32.0739Z" fill="#1B9448"/>
<path fill-rule="evenodd" clip-rule="evenodd" d="M14 1.4359C12.6815 1.4359 11.4872 2.64862 11.4872 4.30769H10.0513C10.0513 2.00164 11.7499 0 14 0C16.2501 0 17.9487 2.00164 17.9487 4.30769H16.5128C16.5128 2.64862 15.3185 1.4359 14 1.4359Z" fill="#1B9448"/>
</svg>
