<svg width="42" height="49" viewBox="0 0 42 49" fill="none" xmlns="http://www.w3.org/2000/svg">
<path fill-rule="evenodd" clip-rule="evenodd" d="M20.9994 25.3688C26.8572 25.3688 31.6059 20.6201 31.6059 14.7623C31.6059 8.90449 26.8572 4.1558 20.9994 4.1558C15.1416 4.1558 10.3929 8.90449 10.3929 14.7623C10.3929 20.6201 15.1416 25.3688 20.9994 25.3688ZM20.9994 26.8503C27.6754 26.8503 33.0874 21.4383 33.0874 14.7623C33.0874 8.08629 27.6754 2.67432 20.9994 2.67432C14.3234 2.67432 8.91138 8.08629 8.91138 14.7623C8.91138 21.4383 14.3234 26.8503 20.9994 26.8503Z" fill="#1B9448"/>
<path fill-rule="evenodd" clip-rule="evenodd" d="M20.9993 28.0061C28.3137 28.0061 34.2432 22.0766 34.2432 14.7622C34.2432 7.44784 28.3137 1.51835 20.9993 1.51835C13.6849 1.51835 7.75541 7.44784 7.75541 14.7622C7.75541 22.0766 13.6849 28.0061 20.9993 28.0061ZM20.9993 29.4876C29.1319 29.4876 35.7247 22.8948 35.7247 14.7622C35.7247 6.62964 29.1319 0.0368652 20.9993 0.0368652C12.8667 0.0368652 6.27393 6.62964 6.27393 14.7622C6.27393 22.8948 12.8667 29.4876 20.9993 29.4876Z" fill="#1B9448"/>
<path fill-rule="evenodd" clip-rule="evenodd" d="M19.1395 28.5983C19.4988 28.4027 19.9487 28.5353 20.1443 28.8946L29.452 45.9856C29.7332 46.5019 30.4748 46.5006 30.7542 45.9833L33.2015 41.453L38.2146 41.8456C38.8127 41.8924 39.2155 41.246 38.9099 40.7298L30.2195 26.0484C30.0111 25.6963 30.1275 25.242 30.4796 25.0336C30.8316 24.8252 31.2859 24.9417 31.4943 25.2937L40.1847 39.9751C41.1015 41.5239 39.8932 43.4631 38.0989 43.3225L34.0468 43.0052L32.0577 46.6875C31.2195 48.2392 28.9944 48.243 28.1509 46.6941L18.8433 29.6031C18.6476 29.2438 18.7803 28.794 19.1395 28.5983Z" fill="#1B9448"/>
<path fill-rule="evenodd" clip-rule="evenodd" d="M11.5208 25.0337C11.1688 24.8253 10.7145 24.9418 10.5061 25.2938L1.81567 39.9752C0.898908 41.524 2.10723 43.4632 3.90149 43.3226L7.95362 43.0053L9.95217 46.7051C10.7875 48.2514 13.0023 48.262 13.8524 46.7237L21.6735 32.5702C21.8713 32.2121 21.7414 31.7614 21.3834 31.5636C21.0253 31.3657 20.5746 31.4956 20.3768 31.8536L12.5557 46.0072C12.2724 46.5199 11.5341 46.5164 11.2556 46.001L8.79895 41.4531L3.78582 41.8457C3.18773 41.8925 2.78495 41.2461 3.09054 40.7299L11.781 26.0485C11.9893 25.6964 11.8729 25.2421 11.5208 25.0337Z" fill="#1B9448"/>
</svg>
