<svg width="24" height="16" viewBox="0 0 24 16" fill="none" xmlns="http://www.w3.org/2000/svg">
<path d="M5.5332 9.79492H3.19922V15H0.269531V0.78125H5.55273C7.23242 0.78125 8.52799 1.1556 9.43945 1.9043C10.3509 2.65299 10.8066 3.71094 10.8066 5.07812C10.8066 6.04818 10.5951 6.85872 10.1719 7.50977C9.75521 8.1543 9.12044 8.66862 8.26758 9.05273L11.3438 14.8633V15H8.19922L5.5332 9.79492ZM3.19922 7.42188H5.5625C6.29818 7.42188 6.86784 7.23633 7.27148 6.86523C7.67513 6.48763 7.87695 5.97005 7.87695 5.3125C7.87695 4.64193 7.6849 4.11458 7.30078 3.73047C6.92318 3.34635 6.34049 3.1543 5.55273 3.1543H3.19922V7.42188ZM23.8047 0.78125V10.1465C23.8047 11.7025 23.3164 12.9329 22.3398 13.8379C21.3698 14.7428 20.0417 15.1953 18.3555 15.1953C16.6953 15.1953 15.377 14.7559 14.4004 13.877C13.4238 12.998 12.9258 11.7904 12.9062 10.2539V0.78125H15.8359V10.166C15.8359 11.097 16.0573 11.7773 16.5 12.207C16.9492 12.6302 17.5677 12.8418 18.3555 12.8418C20.0026 12.8418 20.8392 11.9759 20.8652 10.2441V0.78125H23.8047Z" fill="white"/>
</svg>
