<svg width="26" height="16" viewBox="0 0 26 16" fill="none" xmlns="http://www.w3.org/2000/svg">
<path d="M0.48 15V0.799999H6.76C7.41333 0.799999 8.01333 0.939999 8.56 1.22C9.12 1.48667 9.6 1.84667 10 2.3C10.4 2.74 10.7133 3.24667 10.94 3.82C11.1667 4.38 11.28 4.94667 11.28 5.52C11.28 6.44 11.0467 7.28 10.58 8.04C10.1267 8.78667 9.50667 9.32667 8.72 9.66L11.96 15H8.86L5.96 10.24H3.24V15H0.48ZM3.24 7.82H6.7C6.95333 7.82 7.18667 7.76 7.4 7.64C7.62667 7.52 7.82 7.36 7.98 7.16C8.14 6.94667 8.26667 6.7 8.36 6.42C8.45333 6.14 8.5 5.84 8.5 5.52C8.5 5.18667 8.44667 4.88 8.34 4.6C8.23333 4.32 8.08667 4.08 7.9 3.88C7.72667 3.66667 7.52 3.50667 7.28 3.4C7.05333 3.28 6.82 3.22 6.58 3.22H3.24V7.82ZM19.7808 12.66C20.4341 12.66 20.9808 12.5267 21.4208 12.26C21.8741 11.9933 22.2341 11.6467 22.5008 11.22C22.7808 10.7933 22.9741 10.3067 23.0808 9.76C23.2008 9.2 23.2608 8.62667 23.2608 8.04V0.799999H26.0008V8.04C26.0008 9.01333 25.8808 9.92667 25.6408 10.78C25.4141 11.6333 25.0474 12.38 24.5408 13.02C24.0474 13.66 23.4074 14.1667 22.6208 14.54C21.8341 14.9133 20.8941 15.1 19.8008 15.1C18.6674 15.1 17.7008 14.9067 16.9008 14.52C16.1141 14.12 15.4741 13.6 14.9808 12.96C14.4874 12.3067 14.1274 11.5533 13.9008 10.7C13.6874 9.84667 13.5808 8.96 13.5808 8.04V0.799999H16.3408V8.04C16.3408 8.64 16.3941 9.22 16.5008 9.78C16.6208 10.3267 16.8141 10.8133 17.0808 11.24C17.3608 11.6667 17.7208 12.0133 18.1608 12.28C18.6008 12.5333 19.1408 12.66 19.7808 12.66Z" fill="white"/>
</svg>
