<svg width="19" height="21" viewBox="0 0 19 21" fill="none" xmlns="http://www.w3.org/2000/svg">
<path fill-rule="evenodd" clip-rule="evenodd" d="M1.40625 0.90625C1.13011 0.90625 0.90625 1.13011 0.90625 1.40625C0.90625 1.68239 1.13011 1.90625 1.40625 1.90625H3.88412L4.99699 5.83564L6.21012 13.4739V17.7258C6.21012 18.002 6.43398 18.2258 6.71012 18.2258H14.6628L15.7403 19.3034C15.9356 19.4986 16.2522 19.4986 16.4474 19.3034C16.6427 19.1081 16.6427 18.7915 16.4474 18.5963L15.2235 17.3723C15.1297 17.2785 15.0025 17.2258 14.8699 17.2258H7.21012V13.9344H7.22101H7.24039H7.25974H7.27907H7.29838H7.31767H7.33694H7.35619H7.37542H7.39464H7.41383H7.433H7.45215H7.47128H7.49039H7.50948H7.52855H7.5476H7.56664H7.58565H7.60464H7.62361H7.64256H7.6615H7.68041H7.69931H7.71818H7.73704H7.75587H7.77469H7.79349H7.81226H7.83102H7.84976H7.86848H7.88718H7.90586H7.92453H7.94317H7.9618H7.9804H7.99899H8.01755H8.0361H8.05463H8.07314H8.09164H8.11011H8.12856H8.147H8.16542H8.18381H8.20219H8.22055H8.2389H8.25722H8.27553H8.29381H8.31208H8.33033H8.34856H8.36678H8.38497H8.40315H8.42131H8.43945H8.45757H8.47567H8.49376H8.51183H8.52988H8.54791H8.56592H8.58392H8.60189H8.61985H8.6378H8.65572H8.67363H8.69152H8.70939H8.72724H8.74508H8.76289H8.78069H8.79848H8.81624H8.83399H8.85172H8.86943H8.88713H8.90481H8.92247H8.94011H8.95774H8.97535H8.99294H9.01052H9.02807H9.04561H9.06314H9.08064H9.09813H9.11561H9.13306H9.1505H9.16792H9.18533H9.20271H9.22009H9.23744H9.25478H9.2721H9.2894H9.30669H9.32396H9.34122H9.35846H9.37568H9.39289H9.41007H9.42725H9.4444H9.46154H9.47867H9.49578H9.51287H9.52994H9.547H9.56404H9.58107H9.59808H9.61508H9.63206H9.64902H9.66597H9.6829H9.69981H9.71671H9.73359H9.75046H9.76731H9.78415H9.80097H9.81778H9.83457H9.85134H9.8681H9.88484H9.90157H9.91828H9.93498H9.95166H9.96833H9.98498H10.0016H10.0182H10.0348H10.0514H10.068H10.0846H10.1011H10.1176H10.1342H10.1507H10.1671H10.1836H10.2001H10.2165H10.2329H10.2493H10.2657H10.2821H10.2985H10.3148H10.3312H10.3475H10.3638H10.3801H10.3964H10.4126H10.4289H10.4451H10.4614H10.4776H10.4938H10.5099H10.5261H10.5422H10.5584H10.5745H10.5906H10.6067H10.6228H10.6389H10.6549H10.6709H10.687H10.703H10.719H10.735H10.7509H10.7669H10.7828H10.7988H10.8147H10.8306H10.8465H10.8623H10.8782H10.894H10.9099H10.9257H10.9415H10.9573H10.9731H10.9888H11.0046H11.0203H11.0361H11.0518H11.0675H11.0832H11.0988H11.1145H11.1302H11.1458H11.1614H11.177H11.1926H11.2082H11.2238H11.2393H11.2549H11.2704H11.2859H11.3014H11.3169H11.3324H11.3479H11.3634H11.3788H11.3942H11.4097H11.4251H11.4405H11.4558H11.4712H11.4866H11.5019H11.5173H11.5326H11.5479H11.5632H11.5785H11.5938H11.609H11.6243H11.6395H11.6547H11.67H11.6852H11.7004H11.7155H11.7307H11.7459H11.761H11.7762H11.7913H11.8064H11.8215H11.8366H11.8517H11.8667H11.8818H11.8968H11.9118H11.9269H11.9419H11.9569H11.9719H11.9868H12.0018H12.0168H12.0317H12.0466H12.0616H12.0765H12.0914H12.1062H12.1211H12.136H12.1508H12.1657H12.1805H12.1954H12.2102H12.225H12.2398H12.2545H12.2693H12.2841H12.2988H12.3136H12.3283H12.343H12.3577H12.3724H12.3871H12.4018H12.4164H12.4311H12.4458H12.4604H12.475H12.4896H12.5042H12.5188H12.5334H12.548H12.5626H12.5771H12.5917H12.6062H12.6207H12.6353H12.6498H12.6643H12.6788H12.6932H12.7077H12.7222H12.7366H12.7511H12.7655H12.7799H12.7943H12.8088H12.8231H12.8375H12.8519H12.8663H12.8806H12.895H12.9093H12.9237H12.938H12.9523H12.9666H12.9809H12.9952H13.0095H13.0237H13.038H13.0523H13.0665H13.0807H13.095H13.1092H13.1234H13.1376H13.1518H13.166H13.1801H13.1943H13.2085H13.2226H13.2368H13.2509H13.265H13.2791H13.2933H13.3074H13.3214H13.3355H13.3496H13.3637H13.3777H13.3918H13.4058H13.4199H13.4339H13.4479H13.4619H13.4759H13.4899H13.5039H13.5179H13.5319H13.5459H13.5598H13.5738H13.5877H13.6017H13.6156H13.6295H13.6434H13.6573H13.6712H13.6851H13.699H13.7129H13.7268H13.7406H13.7545H13.7683H13.7822H13.796H13.8099H13.8237H13.8375H13.8513H13.8651H13.8789H13.8927H13.9065H13.9203H13.934H13.9478H13.9615H13.9753H13.989H14.0028H14.0165H14.0302H14.0439H14.0577H14.0714H14.0851H14.0988H14.1124H14.1261H14.1398H14.1535H14.1671H14.1808H14.1944H14.2081H14.2217H14.2353H14.249H14.2626H14.2762H14.2898H14.3034H14.317H14.3306H14.3442H14.3578H14.3713H14.3849H14.3985H14.412H14.4256H14.4391H14.4527H14.4662H14.4797H14.4932H14.5068H14.5203H14.5338H14.5473H14.5608H14.5743H14.5878H14.6013H14.6147H14.6282H14.6417H14.6551H14.6686H14.6821H14.6955H14.7089H14.7224H14.7358H14.7492H14.7627H14.7761H14.7895H14.8029H14.8163H14.8297H14.8431H14.8565H14.8699C15.079 13.9344 15.2661 13.8042 15.3388 13.6081L18.1947 5.90167C18.2515 5.74822 18.2297 5.57665 18.1363 5.44233C18.0428 5.308 17.8895 5.22792 17.7258 5.22792H5.86421L4.74326 1.27C4.68231 1.0548 4.48585 0.90625 4.26218 0.90625H1.40625ZM7.13697 12.9344L6.07183 6.22792H8.37631L9.12148 12.9344H9.11561H9.09813H9.08064H9.06314H9.04561H9.02807H9.01052H8.99294H8.97535H8.95774H8.94011H8.92247H8.90481H8.88713H8.86943H8.85172H8.83399H8.81624H8.79848H8.78069H8.76289H8.74508H8.72724H8.70939H8.69152H8.67363H8.65572H8.6378H8.61985H8.60189H8.58392H8.56592H8.54791H8.52988H8.51183H8.49376H8.47567H8.45757H8.43945H8.42131H8.40315H8.38497H8.36678H8.34856H8.33033H8.31208H8.29381H8.27553H8.25722H8.2389H8.22055H8.20219H8.18381H8.16542H8.147H8.12856H8.11011H8.09164H8.07314H8.05463H8.0361H8.01755H7.99899H7.9804H7.9618H7.94317H7.92453H7.90586H7.88718H7.86848H7.84976H7.83102H7.81226H7.79349H7.77469H7.75587H7.73704H7.71818H7.69931H7.68041H7.6615H7.64256H7.62361H7.60464H7.58565H7.56664H7.5476H7.52855H7.50948H7.49039H7.47128H7.45215H7.433H7.41383H7.39464H7.37542H7.35619H7.33694H7.31767H7.29838H7.27907H7.25974H7.24039H7.22101H7.20162H7.18221H7.16278H7.14332H7.13697ZM9.94248 12.9344H9.95166H9.96833H9.98498H10.0016H10.0182H10.0348H10.0514H10.068H10.0846H10.1011H10.1176H10.1342H10.1507H10.1671H10.1836H10.2001H10.2165H10.2329H10.2493H10.2657H10.2821H10.2985H10.3148H10.3312H10.3475H10.3638H10.3801H10.3964H10.4126H10.4289H10.4451H10.4614H10.4776H10.4938H10.5099H10.5261H10.5422H10.5584H10.5745H10.5906H10.6067H10.6228H10.6389H10.6549H10.6709H10.687H10.703H10.719H10.735H10.7509H10.7669H10.7828H10.7988H10.8147H10.8306H10.8465H10.8623H10.8782H10.894H10.9099H10.9257H10.9415H10.9573H10.9731H10.9888H11.0046H11.0203H11.0361H11.0518H11.0675H11.0832H11.0988H11.1145H11.1302H11.1458H11.1614H11.177H11.1926H11.2082H11.2238H11.2393H11.2549H11.2704H11.2859H11.3014H11.3169H11.3324H11.3479H11.3634H11.3788H11.3942H11.4097H11.4251H11.4405H11.4558H11.4712H11.4866H11.5019H11.5173H11.5326H11.5479H11.5632H11.5785H11.5938H11.609H11.6243H11.6395H11.6547H11.67H11.6852H11.7004H11.7155H11.7307H11.7459H11.761H11.7762H11.7913H11.8064H11.8215H11.8366H11.8517H11.8667H11.8818H11.8968H11.9118H11.9269H11.9419H11.9569H11.9719H11.9868H12.0018H12.0168H12.0317H12.0449L12.79 6.22792H9.19732L9.94248 12.9344ZM13.611 6.22792L12.8659 12.9344H12.8663H12.8806H12.895H12.9093H12.9237H12.938H12.9523H12.9666H12.9809H12.9952H13.0095H13.0237H13.038H13.0523H13.0665H13.0807H13.095H13.1092H13.1234H13.1376H13.1518H13.166H13.1801H13.1943H13.2085H13.2226H13.2368H13.2509H13.265H13.2791H13.2933H13.3074H13.3214H13.3355H13.3496H13.3637H13.3777H13.3918H13.4058H13.4199H13.4339H13.4479H13.4619H13.4759H13.4899H13.5039H13.5179H13.5319H13.5459H13.5598H13.5738H13.5877H13.6017H13.6156H13.6295H13.6434H13.6573H13.6712H13.6851H13.699H13.7129H13.7268H13.7406H13.7545H13.7683H13.7822H13.796H13.8099H13.8237H13.8375H13.8513H13.8651H13.8789H13.8927H13.9065H13.9203H13.934H13.9478H13.9615H13.9753H13.989H14.0028H14.0165H14.0302H14.0439H14.0577H14.0714H14.0851H14.0988H14.1124H14.1261H14.1398H14.1535H14.1671H14.1808H14.1944H14.2081H14.2217H14.2353H14.249H14.2626H14.2762H14.2898H14.3034H14.317H14.3306H14.3442H14.3578H14.3713H14.3849H14.3985H14.412H14.4256H14.4391H14.4527H14.4662H14.4797H14.4932H14.5068H14.5203H14.522L17.0073 6.22792H13.611Z" fill="white"/>
<circle cx="6.71054" cy="19.766" r="1.22397" fill="white"/>
<circle cx="16.502" cy="19.766" r="1.22397" fill="white"/>
<path d="M6.70996 19.3578V17.7258" stroke="white"/>
</svg>
