<svg width="52" height="42" viewBox="0 0 52 42" fill="none" xmlns="http://www.w3.org/2000/svg">
<path fill-rule="evenodd" clip-rule="evenodd" d="M2.07042 37.0572C2.30648 38.7619 3.76957 40.0745 5.53925 40.0745H46.4046C48.1743 40.0745 49.6374 38.7619 49.8734 37.0572H2.07042ZM1.55238 35.5757C1.00191 35.5757 0.555664 36.0219 0.555664 36.5724C0.555664 39.3248 2.78689 41.556 5.53925 41.556H46.4046C49.1569 41.556 51.3882 39.3248 51.3882 36.5724C51.3882 36.0219 50.9419 35.5757 50.3915 35.5757H1.55238Z" fill="#1B9448"/>
<path fill-rule="evenodd" clip-rule="evenodd" d="M40.563 12.0081H11.3819V29.6568C11.3819 32.9296 14.035 35.5827 17.3078 35.5827H34.6371C37.9099 35.5827 40.563 32.9296 40.563 29.6568V12.0081ZM11.3819 10.5266C10.5637 10.5266 9.90039 11.1899 9.90039 12.0081V29.6568C9.90039 33.7478 13.2168 37.0642 17.3078 37.0642H34.6371C38.7281 37.0642 42.0445 33.7478 42.0445 29.6568V12.0081C42.0445 11.1899 41.3812 10.5266 40.563 10.5266H11.3819Z" fill="#1B9448"/>
<path fill-rule="evenodd" clip-rule="evenodd" d="M43.5458 18.3621H42.0371V27.3597H43.5458C46.0304 27.3597 48.0446 25.3455 48.0446 22.8609C48.0446 20.3763 46.0304 18.3621 43.5458 18.3621ZM40.5557 16.8806V28.8412H43.5458C46.8486 28.8412 49.5261 26.1637 49.5261 22.8609C49.5261 19.5581 46.8486 16.8806 43.5458 16.8806H40.5557Z" fill="#1B9448"/>
<path fill-rule="evenodd" clip-rule="evenodd" d="M43.5458 20.9783H42.0371V24.7432H43.5458C44.5855 24.7432 45.4282 23.9004 45.4282 22.8607C45.4282 21.8211 44.5855 20.9783 43.5458 20.9783ZM40.5557 19.4968V26.2247H43.5458C45.4037 26.2247 46.9097 24.7186 46.9097 22.8607C46.9097 21.0029 45.4037 19.4968 43.5458 19.4968H40.5557Z" fill="#1B9448"/>
<path fill-rule="evenodd" clip-rule="evenodd" d="M16.8213 16.6936V10.9001H18.3028V16.6936H16.8213Z" fill="#1B9448"/>
<path fill-rule="evenodd" clip-rule="evenodd" d="M19.6309 27.3597V18.9395L17.5615 17.9593L15.4922 18.9395L15.4922 27.3597L19.6309 27.3597ZM14.858 17.6006C14.3406 17.8457 14.0107 18.367 14.0107 18.9395V27.3597C14.0107 28.1779 14.674 28.8412 15.4922 28.8412H19.6309C20.4491 28.8412 21.1123 28.1779 21.1123 27.3597V18.9395C21.1123 18.367 20.7825 17.8457 20.2651 17.6006L18.1957 16.6204C17.7943 16.4302 17.3288 16.4302 16.9273 16.6204L14.858 17.6006Z" fill="#1B9448"/>
<path fill-rule="evenodd" clip-rule="evenodd" d="M18.986 0.259277C20.1175 1.25505 20.19 2.99348 19.1453 4.08001L19.0488 4.18034L18.8456 4.42426C18.3929 4.96749 18.4551 5.77242 18.986 6.23957L18.0073 7.35174C16.8738 6.35433 16.7409 4.6357 17.7074 3.47584L17.9276 3.21169C17.9388 3.19821 17.9505 3.18514 17.9627 3.17249L18.0774 3.05318C18.5372 2.57493 18.5053 1.80975 18.0073 1.37145L18.986 0.259277Z" fill="#1B9448"/>
<path fill-rule="evenodd" clip-rule="evenodd" d="M26.4616 0.259277C27.5931 1.25505 27.6656 2.99348 26.6209 4.08001L26.5244 4.18034L26.3211 4.42426C25.8685 4.96749 25.9307 5.77242 26.4616 6.23957L25.4829 7.35174C24.3494 6.35433 24.2165 4.6357 25.183 3.47584L25.4032 3.21169C25.4144 3.19821 25.4261 3.18514 25.4383 3.17249L25.553 3.05318C26.0128 2.57493 25.9809 1.80975 25.4829 1.37145L26.4616 0.259277Z" fill="#1B9448"/>
<path fill-rule="evenodd" clip-rule="evenodd" d="M33.9362 0.259277C35.0677 1.25505 35.1402 2.99348 34.0955 4.08001L33.999 4.18034L33.7958 4.42426C33.3431 4.96749 33.4053 5.77242 33.9362 6.23957L32.9575 7.35174C31.824 6.35433 31.6911 4.6357 32.6576 3.47584L32.8778 3.21169C32.889 3.19821 32.9007 3.18514 32.9129 3.17249L33.0276 3.05318C33.4874 2.57493 33.4555 1.80975 32.9575 1.37145L33.9362 0.259277Z" fill="#1B9448"/>
</svg>
