<svg width="51" height="38" viewBox="0 0 51 38" fill="none" xmlns="http://www.w3.org/2000/svg">
<path fill-rule="evenodd" clip-rule="evenodd" d="M32.6438 16.4073H41.9563C42.5494 16.4073 43.1179 16.6445 43.5353 17.0659L50.0234 23.6177C50.4355 24.0338 50.6666 24.5958 50.6666 25.1814V31.9629C50.6666 33.1902 49.6717 34.1851 48.4444 34.1851H45.3583V32.7036H48.4444C48.8535 32.7036 49.1852 32.372 49.1852 31.9629V25.1814C49.1852 24.9862 49.1081 24.7989 48.9707 24.6602L42.4826 18.1084C42.3435 17.9679 42.154 17.8888 41.9563 17.8888H34.1253V32.7036H38.8397V34.1851H32.6438V16.4073Z" fill="#1B9448"/>
<path fill-rule="evenodd" clip-rule="evenodd" d="M0.296387 2.70365C0.296387 1.47635 1.29131 0.48143 2.51861 0.48143H31.9032C33.1305 0.48143 34.1254 1.47635 34.1254 2.70365V34.1851H12.2222V32.7037H32.6439V2.70365C32.6439 2.29455 32.3123 1.96291 31.9032 1.96291H2.51861C2.10951 1.96291 1.77787 2.29455 1.77787 2.70365V31.9629C1.77787 32.372 2.10951 32.7037 2.51861 32.7037H5.46835V34.1851H2.51861C1.29131 34.1851 0.296387 33.1902 0.296387 31.9629V2.70365Z" fill="#1B9448"/>
<path fill-rule="evenodd" clip-rule="evenodd" d="M21.728 13.9858C22.0427 14.2472 22.0858 14.7142 21.8244 15.0289L16.2854 21.6955C16.1517 21.8565 15.9561 21.9534 15.747 21.9623C15.5379 21.9711 15.3348 21.8911 15.1879 21.7419L12.64 19.1549C12.3529 18.8634 12.3565 18.3944 12.648 18.1073C12.9394 17.8203 13.4084 17.8239 13.6955 18.1153L15.669 20.1192L20.6849 14.0821C20.9463 13.7675 21.4133 13.7243 21.728 13.9858Z" fill="#1B9448"/>
<path fill-rule="evenodd" clip-rule="evenodd" d="M17.3949 25.2963C21.743 25.2963 25.2869 21.7417 25.2869 17.3333C25.2869 12.9249 21.743 9.37034 17.3949 9.37034C13.0468 9.37034 9.50297 12.9249 9.50297 17.3333C9.50297 21.7417 13.0468 25.2963 17.3949 25.2963ZM17.3949 26.7777C22.5717 26.7777 26.7684 22.5493 26.7684 17.3333C26.7684 12.1173 22.5717 7.88885 17.3949 7.88885C12.2181 7.88885 8.02148 12.1173 8.02148 17.3333C8.02148 22.5493 12.2181 26.7777 17.3949 26.7777Z" fill="#1B9448"/>
<path fill-rule="evenodd" clip-rule="evenodd" d="M17.3946 27.5185C22.9608 27.5185 27.4921 22.969 27.4921 17.3333C27.4921 11.6976 22.9608 7.14811 17.3946 7.14811C11.8285 7.14811 7.29716 11.6976 7.29716 17.3333C7.29716 22.969 11.8285 27.5185 17.3946 27.5185ZM17.3946 29C23.7895 29 28.9736 23.7766 28.9736 17.3333C28.9736 10.89 23.7895 5.66663 17.3946 5.66663C10.9997 5.66663 5.81567 10.89 5.81567 17.3333C5.81567 23.7766 10.9997 29 17.3946 29Z" fill="#1B9448"/>
<path fill-rule="evenodd" clip-rule="evenodd" d="M36.3201 21.7777C36.3201 20.5504 37.315 19.5555 38.5423 19.5555H41.3121C41.9864 19.5555 42.6242 19.8617 43.046 20.3878L44.5305 22.2396C45.6965 23.6943 44.6609 25.8518 42.7966 25.8518H38.5423C37.315 25.8518 36.3201 24.8569 36.3201 23.6296V21.7777ZM38.5423 21.037C38.1332 21.037 37.8016 21.3686 37.8016 21.7777V23.6296C37.8016 24.0387 38.1332 24.3703 38.5423 24.3703H42.7966C43.418 24.3703 43.7632 23.6511 43.3745 23.1662L41.89 21.3144C41.7495 21.139 41.5368 21.037 41.3121 21.037H38.5423Z" fill="#1B9448"/>
<path fill-rule="evenodd" clip-rule="evenodd" d="M36.3201 28.2592C36.3201 27.8501 36.6517 27.5185 37.0608 27.5185H39.0825C39.4916 27.5185 39.8233 27.8501 39.8233 28.2592C39.8233 28.6683 39.4916 28.9999 39.0825 28.9999H37.0608C36.6517 28.9999 36.3201 28.6683 36.3201 28.2592Z" fill="#1B9448"/>
<path fill-rule="evenodd" clip-rule="evenodd" d="M8.57254 36.037C9.87544 36.037 10.9507 34.9697 10.9507 33.6296C10.9507 32.2894 9.87544 31.2222 8.57254 31.2222C7.26964 31.2222 6.19437 32.2894 6.19437 33.6296C6.19437 34.9697 7.26964 36.037 8.57254 36.037ZM8.57254 37.5185C10.7042 37.5185 12.4322 35.7774 12.4322 33.6296C12.4322 31.4818 10.7042 29.7407 8.57254 29.7407C6.44091 29.7407 4.71289 31.4818 4.71289 33.6296C4.71289 35.7774 6.44091 37.5185 8.57254 37.5185Z" fill="#1B9448"/>
<path fill-rule="evenodd" clip-rule="evenodd" d="M8.57275 34.1851C8.86059 34.1851 9.11299 33.947 9.11299 33.6296C9.11299 33.3122 8.86059 33.074 8.57275 33.074C8.2849 33.074 8.03251 33.3122 8.03251 33.6296C8.03251 33.947 8.2849 34.1851 8.57275 34.1851ZM8.57275 35.6666C9.68931 35.6666 10.5945 34.7546 10.5945 33.6296C10.5945 32.5045 9.68931 31.5925 8.57275 31.5925C7.45618 31.5925 6.55103 32.5045 6.55103 33.6296C6.55103 34.7546 7.45618 35.6666 8.57275 35.6666Z" fill="#1B9448"/>
<path fill-rule="evenodd" clip-rule="evenodd" d="M42.0227 36.037C43.3256 36.037 44.4009 34.9697 44.4009 33.6296C44.4009 32.2894 43.3256 31.2222 42.0227 31.2222C40.7198 31.2222 39.6446 32.2894 39.6446 33.6296C39.6446 34.9697 40.7198 36.037 42.0227 36.037ZM42.0227 37.5185C44.1544 37.5185 45.8824 35.7774 45.8824 33.6296C45.8824 31.4818 44.1544 29.7407 42.0227 29.7407C39.8911 29.7407 38.1631 31.4818 38.1631 33.6296C38.1631 35.7774 39.8911 37.5185 42.0227 37.5185Z" fill="#1B9448"/>
<path fill-rule="evenodd" clip-rule="evenodd" d="M42.0229 34.1851C42.3108 34.1851 42.5632 33.947 42.5632 33.6296C42.5632 33.3122 42.3108 33.074 42.0229 33.074C41.7351 33.074 41.4827 33.3122 41.4827 33.6296C41.4827 33.947 41.7351 34.1851 42.0229 34.1851ZM42.0229 35.6666C43.1395 35.6666 44.0447 34.7546 44.0447 33.6296C44.0447 32.5045 43.1395 31.5925 42.0229 31.5925C40.9064 31.5925 40.0012 32.5045 40.0012 33.6296C40.0012 34.7546 40.9064 35.6666 42.0229 35.6666Z" fill="#1B9448"/>
</svg>
