<svg width="50" height="42" viewBox="0 0 50 42" fill="none" xmlns="http://www.w3.org/2000/svg">
<path fill-rule="evenodd" clip-rule="evenodd" d="M1.55713 36.8334C1.81352 38.4747 3.21344 39.7294 4.90196 39.7294H45.098C46.7866 39.7294 48.1865 38.4747 48.4429 36.8334H1.55713ZM0.980392 35.2949C0.438937 35.2949 0 35.7406 0 36.2904C0 39.0394 2.19468 41.2678 4.90196 41.2678H45.098C47.8053 41.2678 50 39.0394 50 36.2904C50 35.7406 49.5611 35.2949 49.0196 35.2949H0.980392Z" fill="#1B9448"/>
<path fill-rule="evenodd" clip-rule="evenodd" d="M39.066 11.8444H10.9354L13.4505 29.9766C13.8717 33.0137 16.4312 35.2722 19.4518 35.2722H30.5495C33.5701 35.2722 36.1296 33.0137 36.5509 29.9766L39.066 11.8444ZM10.9354 10.3059C10.0145 10.3059 9.30658 11.1331 9.43501 12.059L11.9501 30.1912C12.4767 33.9876 15.6761 36.8107 19.4518 36.8107H30.5495C34.3253 36.8107 37.5246 33.9876 38.0512 30.1912L40.5663 12.059C40.6948 11.1331 39.9868 10.3059 39.066 10.3059H10.9354Z" fill="#1B9448"/>
<path fill-rule="evenodd" clip-rule="evenodd" d="M39.9748 17.3253L38.8384 26.5562H43.1827C45.6931 26.5562 47.7281 24.4898 47.7281 21.9408C47.7281 19.3917 45.6931 17.3253 43.1827 17.3253H39.9748ZM43.1827 28.0947C46.5299 28.0947 49.2433 25.3395 49.2433 21.9408C49.2433 18.5421 46.5299 15.7869 43.1827 15.7869H38.6372L37.1221 28.0947H43.1827Z" fill="#1B9448"/>
<path fill-rule="evenodd" clip-rule="evenodd" d="M39.5951 20.4022L39.2163 23.4792H42.4242C43.261 23.4792 43.9394 22.7904 43.9394 21.9407C43.9394 21.091 43.261 20.4022 42.4242 20.4022H39.5951ZM42.4242 25.0177C44.0978 25.0177 45.4545 23.6401 45.4545 21.9407C45.4545 20.2414 44.0978 18.8638 42.4242 18.8638H38.2576L37.5 25.0177H42.4242Z" fill="#1B9448"/>
<path fill-rule="evenodd" clip-rule="evenodd" d="M18.1476 0C19.273 1.00561 19.3451 2.76122 18.306 3.85848L18.2119 3.95794L18.0126 4.20075C17.5773 4.73107 17.6372 5.51687 18.1476 5.97291L17.1466 7.12787C16.02 6.12116 15.8878 4.38651 16.8486 3.21584L17.0651 2.95202C17.0766 2.93802 17.0886 2.92444 17.101 2.91131L17.2139 2.79215C17.6547 2.32657 17.6242 1.58165 17.1466 1.15496L18.1476 0Z" fill="#1B9448"/>
<path fill-rule="evenodd" clip-rule="evenodd" d="M25.4996 0C26.625 1.00561 26.6971 2.76122 25.6581 3.85848L25.5639 3.95794L25.3646 4.20075C24.9294 4.73107 24.9893 5.51687 25.4996 5.97291L24.4987 7.12787C23.372 6.12116 23.2399 4.38651 24.2007 3.21584L24.4172 2.95202C24.4287 2.93802 24.4406 2.92444 24.4531 2.91131L24.5659 2.79215C25.0068 2.32657 24.9762 1.58165 24.4987 1.15496L25.4996 0Z" fill="#1B9448"/>
<path fill-rule="evenodd" clip-rule="evenodd" d="M32.8536 0C33.9791 1.00561 34.0512 2.76122 33.0121 3.85848L32.9179 3.95794L32.7186 4.20075C32.2834 4.73107 32.3433 5.51687 32.8536 5.97291L31.8527 7.12787C30.726 6.12116 30.5939 4.38651 31.5547 3.21584L31.7712 2.95202C31.7827 2.93802 31.7946 2.92444 31.8071 2.91131L31.9199 2.79215C32.3608 2.32657 32.3302 1.58165 31.8527 1.15496L32.8536 0Z" fill="#1B9448"/>
<path fill-rule="evenodd" clip-rule="evenodd" d="M24.6323 28.2697C25.7652 27.8072 26.9938 26.827 27.967 25.3842C28.9403 23.9414 29.3964 22.424 29.4117 21.1843C29.4272 19.9318 29.0097 19.1509 28.4689 18.7747C27.928 18.3986 27.06 18.2856 25.9154 18.7529C24.7826 19.2153 23.554 20.1955 22.5807 21.6383C21.6075 23.0811 21.1513 24.5986 21.136 25.8382C21.1206 27.0907 21.538 27.8716 22.0789 28.2478C22.6198 28.6239 23.4877 28.7369 24.6323 28.2697ZM21.2227 29.5171C23.4005 31.0316 26.9797 29.5704 29.2171 26.2535C31.4545 22.9366 31.5028 19.02 29.3251 17.5055C27.1473 15.9909 23.5681 17.4521 21.3307 20.769C19.0932 24.0859 19.0449 28.0025 21.2227 29.5171Z" fill="#1B9448"/>
<path fill-rule="evenodd" clip-rule="evenodd" d="M29.7422 18.2483L22.0555 29.644L20.8055 28.7746L28.4922 17.3789L29.7422 18.2483Z" fill="#1B9448"/>
<path fill-rule="evenodd" clip-rule="evenodd" d="M40.0736 14.435H10.1104V12.8965H40.0736V14.435Z" fill="#1B9448"/>
</svg>
