<svg width="48" height="39" viewBox="0 0 48 39" fill="none" xmlns="http://www.w3.org/2000/svg">
<path fill-rule="evenodd" clip-rule="evenodd" d="M8.38135 6.05835H47.5422V31.9099C47.5422 33.4692 46.2781 34.7334 44.7187 34.7334H21.3207V33.3216H44.7187C45.4984 33.3216 46.1305 32.6895 46.1305 31.9099V7.4701H9.7931V17.3287H8.38135V6.05835Z" fill="#1B9448"/>
<path fill-rule="evenodd" clip-rule="evenodd" d="M17.1204 17.2636C17.1204 16.0941 18.0685 15.146 19.238 15.146H36.6872C37.8567 15.146 38.8048 16.0941 38.8048 17.2636V32.6156C38.8048 33.7852 37.8567 34.7333 36.6872 34.7333H21.3215V33.3215H36.6872C37.077 33.3215 37.393 33.0055 37.393 32.6156V17.2636C37.393 16.8738 37.077 16.5578 36.6872 16.5578H19.238C18.8481 16.5578 18.5321 16.8738 18.5321 17.2636V27.7907H17.1204V17.2636Z" fill="#1B9448"/>
<path fill-rule="evenodd" clip-rule="evenodd" d="M38.0989 19.3539H17.8262V17.9421H38.0989V19.3539Z" fill="#1B9448"/>
<path fill-rule="evenodd" clip-rule="evenodd" d="M38.0989 21.8004H17.8262V20.3887H38.0989V21.8004Z" fill="#1B9448"/>
<path fill-rule="evenodd" clip-rule="evenodd" d="M38.0989 24.2472H17.8262V22.8354H38.0989V24.2472Z" fill="#1B9448"/>
<path fill-rule="evenodd" clip-rule="evenodd" d="M38.0989 26.694H17.8262V25.2822H38.0989V26.694Z" fill="#1B9448"/>
<path fill-rule="evenodd" clip-rule="evenodd" d="M38.0995 29.1408L21.6716 29.1408V27.729L38.0995 27.729V29.1408Z" fill="#1B9448"/>
<path fill-rule="evenodd" clip-rule="evenodd" d="M38.0995 31.5875L21.6716 31.5875V30.1758L38.0995 30.1758V31.5875Z" fill="#1B9448"/>
<path fill-rule="evenodd" clip-rule="evenodd" d="M28.0795 1.43985C27.9507 1.40239 27.8139 1.40239 27.6852 1.43985L8.66788 6.97215C8.29355 7.08104 7.90182 6.86587 7.79293 6.49154C7.68403 6.11721 7.89921 5.72548 8.27354 5.61659L27.2908 0.0842917C27.6771 -0.0280972 28.0875 -0.0280972 28.4738 0.0842917L47.4911 5.61659C47.8654 5.72548 48.0806 6.11721 47.9717 6.49154C47.8628 6.86587 47.4711 7.08104 47.0968 6.97215L28.0795 1.43985Z" fill="#1B9448"/>
<path fill-rule="evenodd" clip-rule="evenodd" d="M24.7056 10.5295C24.3158 10.5295 23.9998 10.8456 23.9998 11.2354C23.9998 11.6253 24.3158 11.9413 24.7056 11.9413H31.0585C31.4484 11.9413 31.7644 11.6253 31.7644 11.2354C31.7644 10.8456 31.4484 10.5295 31.0585 10.5295H24.7056Z" fill="#1B9448"/>
<path fill-rule="evenodd" clip-rule="evenodd" d="M9.77317 28.798H1.41175V37.1594L9.77317 37.1594L9.77317 28.798ZM1.41175 27.3862C0.632064 27.3862 0 28.0183 0 28.798V37.1594C0 37.9391 0.632065 38.5712 1.41175 38.5712H9.77317C10.5529 38.5712 11.1849 37.9391 11.1849 37.1594V28.798C11.1849 28.0183 10.5529 27.3862 9.77317 27.3862H1.41175Z" fill="#1B9448"/>
<path fill-rule="evenodd" clip-rule="evenodd" d="M3.17649 27.4707C2.59172 27.4707 2.11768 27.9448 2.11768 28.5295C2.11768 29.1143 2.59172 29.5883 3.17649 29.5883H7.41175C7.99652 29.5883 8.47057 29.1143 8.47057 28.5295C8.47057 27.9448 7.99652 27.4707 7.41175 27.4707H3.17649Z" fill="#1B9448"/>
<path fill-rule="evenodd" clip-rule="evenodd" d="M20.2593 28.798H11.8978V37.1594L20.2593 37.1594L20.2593 28.798ZM11.8978 27.3862C11.1181 27.3862 10.4861 28.0183 10.4861 28.798V37.1594C10.4861 37.9391 11.1181 38.5712 11.8978 38.5712H20.2593C21.0389 38.5712 21.671 37.9391 21.671 37.1594V28.798C21.671 28.0183 21.0389 27.3862 20.2593 27.3862H11.8978Z" fill="#1B9448"/>
<path fill-rule="evenodd" clip-rule="evenodd" d="M13.7644 27.4707C13.1796 27.4707 12.7056 27.9448 12.7056 28.5295C12.7056 29.1143 13.1796 29.5883 13.7644 29.5883H17.9996C18.5844 29.5883 19.0585 29.1143 19.0585 28.5295C19.0585 27.9448 18.5844 27.4707 17.9996 27.4707H13.7644Z" fill="#1B9448"/>
<path fill-rule="evenodd" clip-rule="evenodd" d="M14.6662 18.3124H6.30482V26.6738L14.6662 26.6738L14.6662 18.3124ZM6.30482 16.9006C5.52513 16.9006 4.89307 17.5327 4.89307 18.3124V26.6738C4.89307 27.4535 5.52513 28.0856 6.30482 28.0856H14.6662C15.4459 28.0856 16.078 27.4535 16.078 26.6738V18.3124C16.078 17.5327 15.4459 16.9006 14.6662 16.9006H6.30482Z" fill="#1B9448"/>
<path d="M7.7644 24.6473C7.7644 24.2574 8.08044 23.9414 8.47028 23.9414C8.86013 23.9414 9.17616 24.2574 9.17616 24.6473C9.17616 25.0371 8.86013 25.3532 8.47028 25.3532C8.08044 25.3532 7.7644 25.0371 7.7644 24.6473Z" fill="#1B9448"/>
<path fill-rule="evenodd" clip-rule="evenodd" d="M7.76447 16.8828C7.37463 16.8828 7.05859 17.1988 7.05859 17.5887V18.2946C7.05859 18.6844 7.37463 19.0004 7.76447 19.0004H12.7056C13.0955 19.0004 13.4115 18.6844 13.4115 18.2946V17.5887C13.4115 17.1988 13.0955 16.8828 12.7056 16.8828H7.76447Z" fill="#1B9448"/>
<path d="M2.82349 35.2352C2.82349 34.8453 3.13952 34.5293 3.52936 34.5293C3.91921 34.5293 4.23524 34.8453 4.23524 35.2352C4.23524 35.625 3.91921 35.9411 3.52936 35.9411C3.13952 35.9411 2.82349 35.625 2.82349 35.2352Z" fill="#1B9448"/>
<path d="M13.4116 35.2352C13.4116 34.8453 13.7277 34.5293 14.1175 34.5293C14.5073 34.5293 14.8234 34.8453 14.8234 35.2352C14.8234 35.625 14.5073 35.9411 14.1175 35.9411C13.7277 35.9411 13.4116 35.625 13.4116 35.2352Z" fill="#1B9448"/>
</svg>
